# xmcd
#
# Track frame offsets:
#	150
#	20536
#	39513
#	59811
#	82965
#	98500
#	121137
#	148697
#	170791
#	191443
#	212184
#	229580
#	251139
#	269401
#	288464
#	309538
#
# Disc length: 4384 seconds
#
# Revision: 0
# Processed by: cddbd v1.5.1PL2 Copyright (c) Steve Scherf et al.
# Submitted via: dBpowerAMP V4.0
#
DISCID=ea111e10
DTITLE=Whitney - Balades
DYEAR=2006
DGENRE=Ballad
TTITLE0=ko
TTITLE1=tr
TTITLE2=rt
TTITLE3=gr
TTITLE4=fg
TTITLE5=gfgd
TTITLE6=gfd
TTITLE7=gfdg
TTITLE8=gfdsgfd
TTITLE9=dfgd
TTITLE10=gfdsgfs
TTITLE11=twert
TTITLE12=ewt
TTITLE13=wert
TTITLE14=et
TTITLE15=tfh
EXTD=
EXTT0=
EXTT1=
EXTT2=
EXTT3=
EXTT4=
EXTT5=
EXTT6=
EXTT7=
EXTT8=
EXTT9=
EXTT10=
EXTT11=
EXTT12=
EXTT13=
EXTT14=
EXTT15=
PLAYORDER=
